<svg id="logo-svg" xmlns="http://www.w3.org/2000/svg" viewBox="0 0 101.45 11.79">
<g>
	<g>
		<path class="st0" d="M60.88,0.16h-0.48V4h0.26c0.12,0,0.22-0.1,0.22-0.22V1.77h0.42c0.12,0,0.22-0.1,0.22-0.22V1.34h-0.64V0.16z"
			/>
		<path class="st0" d="M59.17,1.2V0.28h-0.48V1.2c0,0.38-0.15,0.54-0.26,0.68c-0.17,0.2-0.68,0.75-0.68,0.75l0.18,0.18
			c0.07,0.07,0.19,0.07,0.27,0c0.17-0.18,0.46-0.5,0.58-0.64c0.06-0.07,0.11-0.14,0.16-0.2c0.05,0.06,0.1,0.12,0.16,0.2
			c0.12,0.14,0.41,0.45,0.58,0.64c0.07,0.08,0.19,0.08,0.27,0l0.18-0.18c0,0-0.51-0.54-0.68-0.75C59.32,1.74,59.17,1.57,59.17,1.2z"
			/>
		<path class="st0" d="M68.44,0.16h-0.48V4h0.26c0.12,0,0.22-0.1,0.22-0.22V1.77h0.42c0.12,0,0.22-0.1,0.22-0.22V1.34h-0.64V0.16z"
			/>
		<path class="st0" d="M66.72,1.2V0.28l0,0h-0.48V1.2c0,0.38-0.15,0.54-0.26,0.68c-0.17,0.2-0.68,0.75-0.68,0.75l0.18,0.18
			c0.07,0.07,0.2,0.07,0.27,0c0.17-0.18,0.46-0.5,0.58-0.64c0.06-0.07,0.11-0.14,0.16-0.2c0.04,0.06,0.1,0.12,0.16,0.2
			c0.12,0.14,0.41,0.45,0.58,0.64c0.07,0.08,0.19,0.08,0.27,0l0.18-0.18c0,0-0.51-0.54-0.68-0.75C66.87,1.74,66.72,1.57,66.72,1.2z"
			/>
		<path class="st0" d="M49.38,1.44h-0.35V0.16h-0.48V4h0.26c0.12,0,0.22-0.1,0.22-0.22V1.87h0.35V4h0.26c0.12,0,0.22-0.1,0.22-0.22
			V0.16h-0.48V1.44z"/>
		<path class="st0" d="M47.09,0.9h1.21V0.47h-1.68v0.19V0.9v1.57c0,0.2,0.17,0.37,0.37,0.37h1.2c0.12,0,0.22-0.1,0.22-0.22V2.41
			h-1.32V0.9z"/>
		<path class="st0" d="M62.83,1.56c0.04,0.06,0.1,0.12,0.15,0.19c0.11,0.13,0.34,0.38,0.49,0.54c0.07,0.08,0.19,0.08,0.27,0
			l0.18-0.18c0,0-0.42-0.45-0.59-0.65c-0.11-0.13-0.25-0.29-0.26-0.64V0.21h0h-0.48h0v0.61c-0.01,0.35-0.15,0.5-0.26,0.64
			c-0.17,0.2-0.59,0.65-0.59,0.65l0.18,0.18c0.07,0.07,0.19,0.07,0.27,0c0.15-0.16,0.38-0.41,0.49-0.54
			C62.73,1.68,62.79,1.62,62.83,1.56z"/>
		<path class="st0" d="M64.37,2.86h0.26c0.12,0,0.22-0.1,0.22-0.22V0.16h-0.48v0.91h-0.63v0.43h0.63V2.86z"/>
		<path class="st0" d="M62.8,2.62h-0.48v1.01c0,0.2,0.17,0.37,0.37,0.37h2.01c0.12,0,0.22-0.1,0.22-0.22v-0.2H62.8V2.62z"/>
		<path class="st0" d="M53.43,0.16h-0.48v2.75h0.26c0.12,0,0.22-0.1,0.22-0.22v-1h0.33c0.12,0,0.22-0.1,0.22-0.22V1.26h-0.55V0.16z"
			/>
		<path class="st0" d="M51.39,2.81h-0.48v0.82c0,0.2,0.16,0.37,0.37,0.37h2.04c0.12,0,0.22-0.1,0.22-0.22v-0.2h-2.15V2.81z"/>
		<path class="st0" d="M52.39,1.58c0-0.24-0.09-0.45-0.25-0.62h0.48V0.53h-0.95V0.12h-0.48v0.41h-0.95v0.43h0.48
			c-0.15,0.16-0.25,0.38-0.25,0.62c0,0.51,0.43,0.92,0.96,0.92C51.96,2.49,52.39,2.08,52.39,1.58z M50.94,1.58
			c0-0.28,0.21-0.5,0.48-0.5c0.27,0,0.49,0.22,0.49,0.5c0,0.28-0.21,0.5-0.48,0.5C51.17,2.08,50.95,1.86,50.94,1.58z"/>
		<path class="st0" d="M75.75,0.16V4h0.26c0.12,0,0.22-0.1,0.22-0.22V0.16H75.75z"/>
		<path class="st0" d="M74.54,2.44c0.41-0.1,0.72-0.45,0.72-0.86c0-0.24-0.1-0.45-0.26-0.61h0.27c0.12,0,0.22-0.1,0.22-0.22V0.53
			h-0.95V0.12h-0.48v0.41h-0.94v0.43h0.49c-0.16,0.16-0.26,0.38-0.26,0.61c0,0.42,0.3,0.76,0.72,0.86v0.42h-0.99v0.43h2.31
			c0.12,0,0.22-0.1,0.22-0.22V2.85h-1.06V2.44z M73.81,1.58c0-0.26,0.21-0.48,0.48-0.48c0.27,0,0.49,0.21,0.49,0.47
			c0,0.26-0.21,0.48-0.48,0.48C74.04,2.05,73.82,1.84,73.81,1.58z"/>
		<path class="st0" d="M72.05,1.06h-0.54v0.43h0.54v0.16h-0.54v0.43h0.54V2.3h0.26c0.12,0,0.22-0.1,0.22-0.22v-1.9h-0.48V1.06z"/>
		<path class="st0" d="M72.05,2.86h-1.52V2.48h-0.48v1.15c0,0.2,0.16,0.37,0.37,0.37h1.74c0.2,0,0.37-0.17,0.37-0.37V2.48h-0.48
			V2.86z M72.05,3.57h-1.52V3.29h1.52V3.57z"/>
		<path class="st0" d="M71.33,1.46c0-0.18-0.06-0.35-0.17-0.49h0.21c0.12,0,0.22-0.1,0.22-0.22V0.53h-0.95V0.12h-0.48v0.41h-0.94
			v0.43h0.43c-0.11,0.14-0.17,0.31-0.17,0.49c0,0.47,0.41,0.85,0.92,0.85C70.91,2.3,71.33,1.92,71.33,1.46z M69.96,1.46
			c0-0.23,0.2-0.42,0.44-0.43c0.25,0,0.45,0.19,0.45,0.42c0,0.23-0.2,0.42-0.44,0.43C70.16,1.88,69.96,1.69,69.96,1.46z"/>
		<path class="st0" d="M57.89,1.18V0.97h-0.56V0.16h-0.48v2.07h0.26c0.12,0,0.22-0.1,0.22-0.22V1.4h0.34
			C57.79,1.4,57.89,1.3,57.89,1.18z"/>
		<path class="st0" d="M56.25,1.77V0.21h-0.48v0.57h-0.98V0.21h-0.48v1.55c0,0.2,0.16,0.37,0.37,0.37h1.2
			C56.08,2.13,56.25,1.97,56.25,1.77z M55.77,1.71h-0.98V1.21h0.98V1.71z"/>
		<path class="st0" d="M56.26,2.32c-0.57,0-1.04,0.35-1.04,0.91c0,0.56,0.47,0.92,1.04,0.92c0.57,0,1.04-0.35,1.04-0.92
			C57.3,2.67,56.84,2.32,56.26,2.32z M56.26,3.72c-0.31,0-0.56-0.19-0.56-0.49c0-0.3,0.25-0.49,0.56-0.49
			c0.31,0,0.56,0.19,0.56,0.49C56.83,3.54,56.57,3.72,56.26,3.72z"/>
	</g>
	<g>
		<g>
			<path class="st0" d="M46.66,6.75h2.14v0.57h-1.43v2.54c0.62-0.01,1.13-0.04,1.71-0.15l0.05,0.57c-0.69,0.14-1.29,0.16-2.08,0.16
				h-0.39V6.75z M51.4,11.79h-0.67V8.87h-0.64v2.62h-0.64V6.18h0.64v2.13h0.64V6.07h0.67V11.79z"/>
			<path class="st0" d="M52.07,6.71h1.34V6.07h0.7v0.64h1.34v0.56h-3.39V6.71z M53.76,7.51c0.82,0,1.39,0.44,1.4,1.09
				c0,0.65-0.57,1.08-1.4,1.08c-0.83,0-1.4-0.43-1.4-1.08C52.36,7.94,52.93,7.51,53.76,7.51z M52.91,10.01h0.7v1.09h3.18v0.57h-3.88
				V10.01z M53.76,9.14c0.43,0,0.73-0.19,0.73-0.54c0-0.35-0.29-0.55-0.73-0.55s-0.72,0.2-0.72,0.55
				C53.04,8.95,53.33,9.14,53.76,9.14z M56.56,7.88h0.8v0.58h-0.8v1.89h-0.7V6.08h0.7V7.88z"/>
			<path class="st0" d="M60.36,6.85h1.36V6.07h0.7v3.36h-0.7V8.71h-1.37c-0.27,0.28-0.67,0.45-1.13,0.45
				c-0.86,0-1.51-0.57-1.51-1.38c0-0.81,0.65-1.39,1.51-1.38C59.69,6.39,60.09,6.56,60.36,6.85z M59.23,8.56
				c0.47,0,0.82-0.32,0.83-0.78C60.05,7.3,59.7,7,59.23,7c-0.49,0-0.84,0.3-0.84,0.78C58.39,8.25,58.74,8.56,59.23,8.56z
				 M60.49,9.56c1.2,0,1.95,0.41,1.95,1.11c0,0.7-0.75,1.11-1.95,1.11c-1.2,0-1.95-0.41-1.94-1.11C58.54,9.96,59.29,9.55,60.49,9.56
				z M60.49,11.23c0.81,0,1.26-0.2,1.26-0.56c0-0.37-0.46-0.57-1.26-0.58c-0.79,0-1.26,0.2-1.25,0.58
				C59.23,11.03,59.7,11.23,60.49,11.23z M60.72,7.78c0,0.13-0.02,0.25-0.05,0.36h1.05V7.41h-1.05C60.7,7.53,60.72,7.65,60.72,7.78z
				"/>
			<path class="st0" d="M66.59,8.66l-0.38,0.55C65.59,9,65.15,8.58,64.9,8.05c-0.25,0.61-0.71,1.08-1.36,1.31l-0.38-0.55
				c0.92-0.32,1.38-1.08,1.38-1.9V6.38h0.7v0.61C65.24,7.7,65.7,8.38,66.59,8.66z M65.86,9.62c1.18,0,1.91,0.4,1.91,1.07
				c0,0.69-0.73,1.09-1.91,1.09c-1.19,0-1.93-0.39-1.93-1.09C63.93,10.02,64.67,9.62,65.86,9.62z M65.86,11.22
				c0.78,0,1.22-0.18,1.22-0.53c0-0.33-0.44-0.52-1.22-0.52c-0.78,0-1.23,0.19-1.23,0.52C64.63,11.05,65.08,11.22,65.86,11.22z
				 M67.02,6.07h0.7v1.39h0.8v0.58h-0.8v1.45h-0.7V6.07z"/>
			<path class="st0" d="M72.51,9.83l0.06,0.51c-1.28,0.24-2.65,0.25-3.66,0.25l-0.09-0.57C69.85,10.02,71.28,10.01,72.51,9.83z
				 M72.22,7.85c-0.01,0.81-0.67,1.38-1.57,1.38c-0.9,0-1.57-0.57-1.57-1.38c0-0.81,0.67-1.38,1.57-1.38
				C71.56,6.47,72.22,7.04,72.22,7.85z M70.65,8.62c0.51,0,0.88-0.29,0.88-0.77c0-0.47-0.38-0.77-0.88-0.77
				c-0.5,0-0.88,0.3-0.87,0.77C69.77,8.33,70.15,8.62,70.65,8.62z M72.85,6.07h0.7v5.72h-0.7V6.07z"/>
			<path class="st0" d="M77.77,7.18h-3.39V6.62h1.34V6.05h0.7v0.58h1.34V7.18z M76.08,7.4c0.82,0,1.39,0.42,1.4,1.04
				c0,0.62-0.57,1.04-1.4,1.04s-1.4-0.42-1.4-1.04C74.67,7.82,75.25,7.4,76.08,7.4z M75.08,9.92h3.8v1.87h-0.7v-1.31h-3.1V9.92z
				 M76.08,8.94c0.43,0,0.73-0.18,0.73-0.5c0-0.32-0.29-0.51-0.73-0.51s-0.72,0.19-0.72,0.51C75.35,8.77,75.64,8.95,76.08,8.94z
				 M78.18,6.07h0.7v1.52h0.8v0.57h-0.8v1.48h-0.7V6.07z"/>
			<path class="st0" d="M82.31,7.24h-2.02V6.68h2.74c0,1.7-0.66,3.14-2.66,4.09l-0.37-0.56C81.49,9.5,82.18,8.54,82.31,7.24z
				 M84.73,11.79h-0.71V6.07h0.71V11.79z"/>
			<path class="st0" d="M85.53,8.37h5.21v0.56h-2.26v0.44h1.61v1.42h-3.25v0.42h3.41v0.54h-4.09v-1.46h3.25V9.9h-3.25V9.37h1.63
				V8.92h-2.24V8.37z M90.47,7.55l-0.23,0.53c-0.97-0.11-1.74-0.5-2.1-1.05C87.76,7.59,87,7.97,86.04,8.08L85.8,7.55
				c1.2-0.13,1.97-0.69,1.98-1.29V6.11h0.72v0.15C88.5,6.87,89.28,7.42,90.47,7.55z"/>
			<path class="st0" d="M94.51,7.18h-3.39V6.62h1.34V6.05h0.7v0.58h1.34V7.18z M92.81,7.4c0.82,0,1.39,0.42,1.4,1.04
				c0,0.62-0.57,1.04-1.4,1.04s-1.4-0.42-1.4-1.04C91.41,7.82,91.99,7.4,92.81,7.4z M91.81,9.92h3.8v1.87h-0.7v-1.31h-3.1V9.92z
				 M92.81,8.94c0.43,0,0.73-0.18,0.73-0.5c0-0.32-0.29-0.51-0.73-0.51s-0.72,0.19-0.72,0.51C92.09,8.77,92.38,8.95,92.81,8.94z
				 M94.92,6.07h0.7v1.52h0.8v0.57h-0.8v1.48h-0.7V6.07z"/>
			<path class="st0" d="M98.23,10.18V9.66c-0.64-0.1-1.06-0.49-1.06-1.04c0-0.64,0.57-1.07,1.4-1.07c0.84,0,1.42,0.43,1.42,1.07
				c0,0.54-0.42,0.93-1.06,1.03v0.5c0.5-0.02,1.01-0.06,1.48-0.13l0.05,0.52c-1.25,0.21-2.62,0.23-3.65,0.23l-0.1-0.58
				C97.17,10.2,97.69,10.2,98.23,10.18z M96.84,6.73h1.39V6.09h0.7v0.64h1.38v0.56h-3.47V6.73z M98.57,9.14
				c0.45,0,0.75-0.19,0.75-0.52c0-0.33-0.3-0.53-0.75-0.54c-0.43,0-0.74,0.21-0.73,0.54C97.83,8.95,98.14,9.14,98.57,9.14z
				 M101.45,11.79h-0.7V6.07h0.7V11.79z"/>
		</g>
	</g>
	<path class="st0" d="M30.35,0.12l0,11.72h0.98c0.55,0,0.99-0.42,0.99-0.97l0-10.75H30.35z"/>
	<path class="st0" d="M0,11.85h0.99c0.55,0,0.99-0.42,0.99-0.97l0-10.75H0V11.85z"/>
	<path class="st0" d="M9.39,0.14H6.94L2.58,5.41C2.44,5.58,2.37,5.79,2.37,6c0,0.21,0.07,0.42,0.22,0.6l4.63,5.25h2.54L4.64,6
		L9.39,0.14z"/>
	<path class="st0" d="M43.49,1.17V0.14h-9.81v1.91h3.92l0,9.81h0.98c0.55,0,0.98-0.42,0.98-0.97l0-8.84h3.11
		C43.23,2.04,43.49,1.76,43.49,1.17z"/>
	<g>
		<path class="st0" d="M25.35,7.42c0.22-0.03,0.67-0.13,1.2-0.39c1.19-0.59,1.96-1.86,1.96-3.24c0-2.02-1.64-3.66-3.65-3.66l-5.47,0
			l0.01,11.72h0.98c0.55,0,0.98-0.42,0.98-0.95V2.1h3.5c0.93,0,1.69,0.76,1.69,1.69c0,0.93-0.76,1.69-1.69,1.69h-2.5
			c-0.17,0-0.33,0.1-0.41,0.25c-0.08,0.16-0.06,0.35,0.06,0.5l4.76,5.62h2.41l-3.88-4.42L25.35,7.42z"/>
		<path class="st0" d="M13.67,11.96c-2.8,0-4.31-2.33-4.31-2.33l0.93-0.71c0.3-0.23,0.73-0.2,1,0.08c0.61,0.64,1.37,1.03,2.42,1.03
			c1.61,0,2.19-1,2.2-1.57c0.02-0.75-0.55-1.17-2.27-1.44c-0.42-0.07-1.5-0.2-2.6-0.79c-0.92-0.5-1.67-1.52-1.57-2.96
			C9.6,1.39,11.58,0,13.72,0c2.15,0,3.42,1.15,3.98,1.88l-1.05,0.75c-0.27,0.19-0.63,0.2-0.9,0.01c-0.51-0.36-1.23-0.67-1.98-0.67
			c-0.7,0-1.46,0.21-1.88,0.66c-0.23,0.25-0.38,0.59-0.38,0.89c0,0.61,0.21,1.06,2.41,1.44c0.92,0.16,2.29,0.44,2.88,0.89
			c0.78,0.59,1.26,1.21,1.15,2.66c-0.07,1.01-0.55,1.78-1.31,2.44C15.85,11.63,14.66,11.96,13.67,11.96z"/>
	</g>
</g>
</svg>
